
    <svg width="32" height="32" viewBox="0 0 32 32" fill="none" xmlns="http://www.w3.org/2000/svg">
    <circle cx="16" cy="16" r="14" fill="#D4AF37"/>
    <path d="M16 6C12.6863 6 10 8.68629 10 12C10 14.5067 12.293 17.108 15 19.0937C15.3333 19.3333 15.6667 19.3333 16 19.0937C18.707 17.108 21 14.5067 21 12C21 8.68629 18.3137 6 16 6Z" fill="#FFF1D6"/>
    <path d="M16 26C19.3137 26 22 23.3137 22 20C22 17.4933 19.707 14.892 17 12.9063C16.6667 12.6667 16.3333 12.6667 16 12.9063C13.293 14.892 11 17.4933 11 20C11 23.3137 13.6863 26 16 26Z" fill="#FFF1D6"/>
    <style>
      path { fill: #8A6528; } 
      @media (prefers-color-scheme: dark) {
        circle { fill: #B8860B; }
        path { fill: #F0E68C; }
      }
    </style>
    </svg>
  